<svg width="75" height="50" viewBox="0 0 75 50" fill="none" xmlns="http://www.w3.org/2000/svg">
<g clip-path="url(#clip0_2654_1464)">
<g style="mix-blend-mode:multiply">
<path d="M44.996 0.00859127H37.2891L37.2988 0H35.0998L35.0907 0.00859127H23.9463V1.55985L33.3063 1.55126L8.25079 24.1807V0.011276H0.456055V49.7724H8.25025V26.4724C17.3424 18.1877 26.4533 9.8805 35.5782 1.56737C38.9219 1.57059 42.1842 1.57274 44.7121 1.57274C74.2234 1.57274 74.57 48 44.9815 48.2094L17.389 20.2421L11.7949 25.3453L36.0935 49.7692H46.0245C62.0302 49.7692 75.0007 42.2723 75.0007 24.8932C75.0002 10.7445 66.4169 0.00859127 44.996 0.00859127Z" fill="#AD0C0C"/>
</g>
</g>
<defs>
<clipPath id="clip0_2654_1464">
<rect width="75" height="50" fill="white"/>
</clipPath>
</defs>
</svg>
