<svg width="24" height="24" viewBox="0 0 24 24" fill="none" xmlns="http://www.w3.org/2000/svg">
<path d="M16.6843 9.16037L15.5566 16.3805C15.5411 16.48 15.501 16.5741 15.4401 16.6544C15.3792 16.7346 15.2993 16.7985 15.2076 16.8402C15.116 16.882 15.0153 16.9003 14.9148 16.8936C14.8143 16.8868 14.717 16.8552 14.6317 16.8015L10.8556 14.4355C10.7772 14.3864 10.7109 14.3201 10.662 14.2415C10.613 14.1629 10.5826 14.0742 10.5731 13.9821C10.5637 13.89 10.5753 13.797 10.6073 13.7101C10.6392 13.6232 10.6905 13.5447 10.7574 13.4806L13.892 10.4763C13.9272 10.4432 13.8858 10.3884 13.8444 10.4132L9.30071 13.132C9.03064 13.2944 8.70992 13.3508 8.40065 13.2903L6.75572 12.9727C6.16189 12.8578 6.08016 12.0426 6.63778 11.8119L15.4335 8.17548C15.5834 8.11314 15.7471 8.09188 15.9079 8.11392C16.0687 8.13595 16.2207 8.20047 16.3482 8.30082C16.4758 8.40117 16.5743 8.53372 16.6335 8.68481C16.6928 8.83591 16.7106 9.00007 16.6853 9.16037" fill="black"/>
<path fill-rule="evenodd" clip-rule="evenodd" d="M11.999 2.08594C6.52437 2.08594 2.08594 6.52437 2.08594 11.999C2.08594 17.4736 6.52437 21.912 11.999 21.912C17.4736 21.912 21.912 17.4736 21.912 11.999C21.912 6.52437 17.4736 2.08594 11.999 2.08594ZM3.78466 11.999C3.78466 10.9203 3.99713 9.8521 4.40993 8.85549C4.82274 7.85889 5.42781 6.95335 6.19058 6.19058C6.95335 5.42781 7.85889 4.82274 8.85549 4.40993C9.8521 3.99713 10.9203 3.78466 11.999 3.78466C13.0777 3.78466 14.1459 3.99713 15.1425 4.40993C16.1391 4.82274 17.0446 5.42781 17.8074 6.19058C18.5702 6.95335 19.1752 7.85889 19.588 8.85549C20.0008 9.8521 20.2133 10.9203 20.2133 11.999C20.2133 14.1776 19.3479 16.2669 17.8074 17.8074C16.2669 19.3479 14.1776 20.2133 11.999 20.2133C9.82041 20.2133 7.73106 19.3479 6.19058 17.8074C4.65009 16.2669 3.78466 14.1776 3.78466 11.999Z" fill="black"/>
</svg>
