<svg width="88" height="58" viewBox="0 0 88 58" fill="none" xmlns="http://www.w3.org/2000/svg">
<g clip-path="url(#clip0_2086_18063)">
<g style="mix-blend-mode:multiply">
<path d="M52.2602 0.141802H43.2175L43.2288 0.131836H40.6486L40.638 0.141802H27.5619V1.94126L38.5443 1.9313L9.14582 28.1814V0.144916H0V57.8679H9.14519V30.8398C19.8133 21.2296 30.5035 11.5932 41.2099 1.94998C45.1332 1.95372 48.961 1.95621 51.9271 1.95621C86.5537 1.95621 86.9604 55.8118 52.2432 56.0547L19.868 23.6127L13.3042 29.5324L41.8146 57.8641H53.467C72.247 57.8641 87.4657 49.1677 87.4657 29.0079C87.4651 12.5954 77.3941 0.141802 52.2602 0.141802Z" fill="#AD0C0C"/>
</g>
</g>
<defs>
<clipPath id="clip0_2086_18063">
<rect width="87.4657" height="58" fill="white"/>
</clipPath>
</defs>
</svg>
