<svg width="30" height="30" viewBox="0 0 30 30" fill="none" xmlns="http://www.w3.org/2000/svg">
<path d="M9.34062 3.59961C9.99673 3.59961 12.6212 9.50465 12.6212 10.1608C12.6212 11.473 10.6528 12.7852 9.99673 14.0975C9.34062 15.4097 10.6528 16.7219 11.9651 18.0341C12.4768 18.5459 14.5895 20.6586 15.9018 20.0025C17.214 19.3464 18.5262 17.378 19.8385 17.378C20.4946 17.378 26.3996 20.0025 26.3996 20.6586C26.3996 23.2831 24.4313 25.2514 22.4629 25.9075C20.4946 26.5636 19.1823 26.5636 16.5579 25.9075C13.9334 25.2514 11.9651 24.5953 8.6845 21.3147C5.40393 18.0341 4.74781 16.0658 4.0917 13.4413C3.43558 10.8169 3.43558 9.50465 4.0917 7.5363C4.74781 5.56795 6.71616 3.59961 9.34062 3.59961Z" stroke="black" stroke-width="1.5" stroke-linecap="round" stroke-linejoin="round"/>
</svg>
