<svg width="30" height="30" viewBox="0 0 30 30" fill="none" xmlns="http://www.w3.org/2000/svg">
<path d="M15.3251 27.0506C21.8009 27.0506 27.0506 21.8009 27.0506 15.3251C27.0506 8.84929 21.8009 3.59961 15.3251 3.59961C8.84929 3.59961 3.59961 8.84929 3.59961 15.3251C3.59961 21.8009 8.84929 27.0506 15.3251 27.0506Z" stroke="black" stroke-width="1.5" stroke-miterlimit="10" stroke-linejoin="round"/>
<path d="M5.16602 9.85352H25.4902" stroke="black" stroke-width="1.5" stroke-miterlimit="10" stroke-linejoin="round"/>
<path d="M5.16602 20.7988H25.4902" stroke="black" stroke-width="1.5" stroke-miterlimit="10" stroke-linejoin="round"/>
<path d="M15.3254 3.59961C15.3254 3.59961 9.85352 7.50811 9.85352 15.3251C9.85352 23.1421 15.3254 27.0506 15.3254 27.0506" stroke="black" stroke-width="1.5" stroke-miterlimit="10" stroke-linejoin="round"/>
<path d="M15.3281 3.59961C15.3281 3.59961 20.8 7.50811 20.8 15.3251C20.8 23.1421 15.3281 27.0506 15.3281 27.0506" stroke="black" stroke-width="1.5" stroke-miterlimit="10" stroke-linejoin="round"/>
</svg>
